<svg id="Layer_1" data-name="Layer 1" xmlns="http://www.w3.org/2000/svg" width="3.01in" height="3.01in" viewBox="0 0 217 217"><defs><style>.cls-1,.cls-2,.cls-3{fill:none;}.cls-1,.cls-3{stroke:red;}.cls-1,.cls-2{stroke-linecap:round;stroke-linejoin:round;}.cls-2{stroke:lime;}.cls-3{stroke-miterlimit:10;}</style></defs><title>imu</title><g id="LWPOLYLINE"><path class="cls-1" d="M196.24,274.57a5.26,5.26,0,0,0,0-10.51" transform="translate(-107.5 -107.5)"/></g><g id="LWPOLYLINE-2" data-name="LWPOLYLINE"><path class="cls-1" d="M196.24,264.06a5.26,5.26,0,1,0,0,10.51" transform="translate(-107.5 -107.5)"/></g><g id="LWPOLYLINE-3" data-name="LWPOLYLINE"><path class="cls-1" d="M196.24,240a5.26,5.26,0,0,0,0-10.51" transform="translate(-107.5 -107.5)"/></g><g id="LWPOLYLINE-4" data-name="LWPOLYLINE"><path class="cls-1" d="M196.24,229.5a5.26,5.26,0,1,0,0,10.51" transform="translate(-107.5 -107.5)"/></g><rect class="cls-2" x="48.34" y="119.26" width="48.31" height="50.47"/><g id="LWPOLYLINE-5" data-name="LWPOLYLINE"><path class="cls-1" d="M196.24,202.57a5.26,5.26,0,0,0,0-10.51" transform="translate(-107.5 -107.5)"/></g><g id="LWPOLYLINE-6" data-name="LWPOLYLINE"><path class="cls-1" d="M196.24,192.06a5.26,5.26,0,1,0,0,10.51" transform="translate(-107.5 -107.5)"/></g><g id="LWPOLYLINE-7" data-name="LWPOLYLINE"><path class="cls-1" d="M196.24,168a5.26,5.26,0,0,0,0-10.51" transform="translate(-107.5 -107.5)"/></g><g id="LWPOLYLINE-8" data-name="LWPOLYLINE"><path class="cls-1" d="M196.24,157.5a5.26,5.26,0,1,0,0,10.51" transform="translate(-107.5 -107.5)"/></g><rect class="cls-2" x="48.34" y="47.26" width="48.31" height="50.47"/><g id="LWPOLYLINE-9" data-name="LWPOLYLINE"><path class="cls-1" d="M268.24,274.57a5.26,5.26,0,0,0,0-10.51" transform="translate(-107.5 -107.5)"/></g><g id="LWPOLYLINE-10" data-name="LWPOLYLINE"><path class="cls-1" d="M268.24,264.06a5.26,5.26,0,1,0,0,10.51" transform="translate(-107.5 -107.5)"/></g><g id="LWPOLYLINE-11" data-name="LWPOLYLINE"><path class="cls-1" d="M268.24,240a5.26,5.26,0,0,0,0-10.51" transform="translate(-107.5 -107.5)"/></g><g id="LWPOLYLINE-12" data-name="LWPOLYLINE"><path class="cls-1" d="M268.24,229.5a5.26,5.26,0,1,0,0,10.51" transform="translate(-107.5 -107.5)"/></g><rect class="cls-2" x="120.34" y="119.26" width="48.31" height="50.47"/><g id="LWPOLYLINE-13" data-name="LWPOLYLINE"><path class="cls-1" d="M268.24,202.57a5.26,5.26,0,0,0,0-10.51" transform="translate(-107.5 -107.5)"/></g><g id="LWPOLYLINE-14" data-name="LWPOLYLINE"><path class="cls-1" d="M268.24,192.06a5.26,5.26,0,1,0,0,10.51" transform="translate(-107.5 -107.5)"/></g><g id="LWPOLYLINE-15" data-name="LWPOLYLINE"><path class="cls-1" d="M268.24,168a5.26,5.26,0,0,0,0-10.51" transform="translate(-107.5 -107.5)"/></g><g id="LWPOLYLINE-16" data-name="LWPOLYLINE"><path class="cls-1" d="M268.24,157.5a5.26,5.26,0,1,0,0,10.51" transform="translate(-107.5 -107.5)"/></g><rect class="cls-2" x="120.34" y="47.26" width="48.31" height="50.47"/><rect class="cls-3" x="0.5" y="0.5" width="216" height="216"/><circle class="cls-1" cx="18.5" cy="18.5" r="9"/><circle class="cls-1" cx="18.5" cy="198.5" r="9"/><circle class="cls-1" cx="198.5" cy="18.5" r="9"/><circle class="cls-1" cx="198.5" cy="198.5" r="9"/></svg>